<svg version="1.2" xmlns="http://www.w3.org/2000/svg" viewBox="0 0 169 58" width="169" height="58"><style>.a{fill:#72c5bc}</style><path class="a" d="m22.4 43.5q-3.3 0-6.1-1.6-2.8-1.5-4.5-4.5-1.7-3.1-1.7-7.5 0-4.4 1.7-7.5 1.8-3.1 4.6-4.7 2.9-1.7 6.2-1.7 2.6 0 4.6 1 2.1 1.1 3.4 2.4l-3.2 3.9q-1-1-2.1-1.5-1.1-0.6-2.6-0.6-1.7 0-3.2 1-1.5 1-2.4 2.9-0.9 1.9-0.9 4.6 0 4.1 1.8 6.3 1.7 2.3 4.7 2.3 1.6 0 2.9-0.7 1.3-0.7 2.2-1.8l3.2 3.8q-3.3 3.9-8.6 3.9z"/><path fill-rule="evenodd" class="a" d="m47.8 42.5q-0.4-0.1-0.8-0.2-0.4-0.1-0.8-0.2-0.4-0.1-0.8-0.3-0.4-0.1-0.7-0.3h-0.1q0 0-0.1-0.1-0.1 0-0.2-0.1-0.1 0-0.2-0.1-0.1 0-0.1-0.1-0.7-0.3-1.2-0.7c-5.7-4-7.1-11.9-3.1-17.5q0.3-0.5 0.7-0.9 0.3-0.4 0.7-0.8 0.4-0.4 0.8-0.8 0.5-0.3 0.9-0.6c4.2-2.9 9.8-3.1 14.2-0.2l-1 1.4c-0.2 0.4-0.1 0.7 0.4 0.6l4.1-0.4c0.4 0 0.7-0.4 0.6-0.8l-1.1-4c-0.1-0.4-0.4-0.5-0.7-0.1l-0.9 1.4q-1.2-0.8-2.6-1.4-1.3-0.6-2.7-0.9-1.4-0.3-2.8-0.3-1.4 0-2.9 0.2-0.1 0.1-0.2 0.1-0.2 0-0.3 0-0.2 0.1-0.3 0.1-0.2 0-0.3 0.1h-0.1q-1.2 0.3-2.3 0.8-1.2 0.5-2.3 1.2-1 0.8-1.9 1.6-0.9 0.9-1.7 1.9 0 0-0.1 0.1-0.1 0.1-0.2 0.3 0 0 0 0.1-0.1 0-0.1 0.1-0.1 0.1-0.1 0.1 0 0.1-0.1 0.1 0 0.1 0 0.1-0.6 1-1.1 2-0.5 1.1-0.8 2.2-0.3 1.1-0.4 2.3-0.1 1.1-0.1 2.3 0 0.4 0.1 0.9 0 0 0 0.1 0 0.4 0.1 0.9 0.2 1.1 0.6 2.2 0.4 1.1 0.9 2.1 0.5 1.1 1.2 2 0.7 0.9 1.5 1.7v0.1q0.3 0.2 0.5 0.4 0.2 0.2 0.5 0.4 0.2 0.2 0.5 0.4 0.2 0.2 0.5 0.4 0.6 0.4 1.3 0.8 0.8 0.4 1.5 0.7 0.8 0.4 1.6 0.6 0.7 0.2 1.5 0.4c0.4 0 0.7 0 0.9-0.2 0.3-0.2 0.5-0.5 0.5-0.8 0.1-0.3 0-0.6-0.2-0.9-0.1-0.3-0.4-0.4-0.7-0.5zm14.1-16.3c0.1 0.3 0.4 0.5 0.6 0.7 0.3 0.1 0.7 0.2 1 0.1 0.3-0.1 0.6-0.4 0.7-0.7 0.1-0.3 0.2-0.6 0-0.9q0-0.1 0-0.2-0.1-0.1-0.1-0.2-0.1-0.1-0.1-0.2 0-0.2-0.1-0.3c-0.1-0.3-0.3-0.5-0.6-0.6-0.3-0.1-0.6-0.1-0.9 0-0.3 0.1-0.6 0.3-0.7 0.6-0.1 0.3-0.1 0.6 0 0.9q0.1 0.4 0.2 0.8zm-5 14.4q-0.3 0.2-0.6 0.4c-0.3 0.2-0.5 0.4-0.5 0.7-0.1 0.3-0.1 0.7 0.1 0.9 0.1 0.3 0.4 0.5 0.7 0.6 0.3 0.1 0.6 0 0.9-0.1q0.4-0.2 0.8-0.5c0.2-0.2 0.4-0.4 0.5-0.7 0-0.4 0-0.7-0.2-0.9-0.2-0.3-0.5-0.5-0.8-0.5-0.3-0.1-0.6-0.1-0.9 0.1zm8.1-11.1c0-0.3-0.2-0.6-0.4-0.8-0.2-0.2-0.5-0.3-0.9-0.3-0.3 0-0.6 0.2-0.8 0.4-0.2 0.2-0.3 0.5-0.3 0.8q0 0.4 0 0.8 0 0.2 0.1 0.5 0.1 0.2 0.2 0.3 0.2 0.2 0.4 0.3 0.2 0.1 0.5 0.1 0.2 0 0.4-0.1 0.3 0 0.4-0.2 0.2-0.2 0.3-0.4 0.1-0.2 0.1-0.5 0-0.4 0-0.9zm-3.2 7.9q-0.2-0.1-0.5-0.2-0.2 0-0.4 0-0.3 0-0.5 0.2-0.2 0.1-0.3 0.3-0.3 0.3-0.5 0.6c-0.2 0.2-0.3 0.5-0.3 0.8 0.1 0.3 0.2 0.6 0.5 0.8 0.2 0.2 0.5 0.3 0.8 0.3 0.3 0 0.6-0.1 0.8-0.4q0.3-0.3 0.6-0.7c0.4-0.5 0.3-1.3-0.2-1.7zm1.7-4.3q-0.2-0.1-0.4-0.1-0.3 0-0.5 0.2-0.2 0.1-0.4 0.2-0.1 0.2-0.2 0.5-0.1 0.3-0.2 0.7c-0.1 0.3-0.1 0.6 0 0.9 0.1 0.3 0.4 0.5 0.7 0.6 0.3 0.1 0.6 0.1 0.9 0 0.3-0.1 0.5-0.4 0.6-0.7q0.2-0.4 0.3-0.8 0.1-0.2 0.1-0.5-0.1-0.2-0.2-0.4-0.1-0.2-0.3-0.4-0.1-0.2-0.4-0.2zm-10.5 9.2q-0.3 0.1-0.7 0.2-0.4 0.1-0.6 0.3-0.3 0.3-0.4 0.6-0.1 0.4 0.1 0.7 0.1 0.3 0.4 0.6c0.3 0.1 0.6 0.2 0.9 0.2q0.5-0.1 0.9-0.2c0.3-0.1 0.6-0.3 0.7-0.6 0.2-0.3 0.2-0.6 0.2-0.9-0.1-0.3-0.3-0.6-0.6-0.7-0.2-0.2-0.6-0.2-0.9-0.2z"/><path fill-rule="evenodd" class="a" d="m49.3 20.4q-0.2 0-0.4 0-0.2 0.1-0.3 0.3-0.2 0.1-0.2 0.3-0.1 0.1-0.1 0.3v9.8l8.9 4.6q0.1 0 0.3 0.1 0.2 0 0.4-0.1 0.2 0 0.4-0.2 0.1-0.1 0.2-0.3 0.1-0.1 0.1-0.3 0-0.2 0-0.4-0.1-0.2-0.2-0.3-0.2-0.2-0.3-0.3l-7.9-4v-8.6q0-0.2 0-0.3-0.1-0.2-0.3-0.3-0.1-0.2-0.3-0.3-0.1 0-0.3 0z"/><path class="a" d="m76 44h-5.7v-26.5h6.2l6.9 13.2 2.6 5.8h0.2q-0.2-2.1-0.5-4.7-0.3-2.6-0.3-5v-9.3h5.7v26.5h-6.1l-6.9-13.2-2.6-5.8h-0.2q0.2 2.2 0.5 4.7 0.2 2.5 0.2 4.9zm32.6 0h-6v-21.5h-7.3v-5h20.6v5h-7.3zm16-13.4l-0.6 2.4h5.6l-0.6-2.4q-0.5-2-1.1-4.2-0.5-2.3-1-4.4h-0.2q-0.5 2.2-1 4.4-0.5 2.2-1.1 4.2zm-3.5 13.4h-6.1l8.3-26.5h7.2l8.3 26.5h-6.3l-1.7-6.3h-8.1zm28.7 0.5q-2.6 0-5.2-1-2.5-1-4.6-2.8l3.4-4.1q1.5 1.2 3.2 2 1.8 0.7 3.4 0.7 1.9 0 2.8-0.7 0.9-0.7 0.9-1.8 0-1.3-1.1-1.9-1-0.6-2.7-1.3l-3.5-1.5q-1.3-0.5-2.6-1.5-1.2-1-1.9-2.4-0.8-1.4-0.8-3.3 0-2.2 1.2-4 1.2-1.8 3.3-2.8 2.2-1.1 4.9-1.1 2.3 0 4.6 0.9 2.3 0.9 4 2.6l-3.1 3.8q-1.3-1-2.6-1.6-1.3-0.5-2.9-0.5-1.5 0-2.5 0.6-0.9 0.6-0.9 1.8 0 1.2 1.2 1.8 1.2 0.6 2.9 1.3l3.4 1.4q2.4 1 3.8 2.7 1.4 1.7 1.4 4.5 0 2.2-1.1 4.1-1.2 1.8-3.5 3-2.2 1.1-5.4 1.1z"/></svg>